<svg width="441.7699" height="315.8327" viewBox="0 0 441.7699 315.8327" xmlns="http://www.w3.org/2000/svg" xmlns:xlink="http://www.w3.org/1999/xlink"><g fill="none" fill-rule="nonzero" stroke="none" stroke-width="none" stroke-linecap="butt" stroke-linejoin="none" stroke-miterlimit="10" stroke-dasharray="" stroke-dashoffset="0" font-family="none" font-weight="none" font-size="none" text-anchor="none" style="mix-blend-mode: normal"><path d="M46.0276,92.4074c-20.0316,0.2243 -36.1247,16.5781 -36.0271,36.6107l0.3083,63.2811c0.0981,20.1284 16.5751,36.3232 36.7023,36.0733l72.7904,-0.9035c2.7237,-0.0338 5.4121,0.6191 7.8169,1.8984l138.5185,73.6878c15.5219,8.2572 34.2723,-2.8779 34.4501,-20.4586l2.5221,-249.3236c0.1786,-17.6514 -18.7677,-28.9195 -34.1924,-20.3355l-137.5616,76.5549c-2.3583,1.3124 -5.0068,2.0156 -7.7056,2.0458z" fill="#ffffff" stroke="#cc2fa9" stroke-width="20" stroke-linejoin="miter"></path><path d="M352.4569,67.1771c107.923,61.3835 104.8418,119.2353 -3.9615,181.4785" fill="#ffffff" stroke="#cc2fa9" stroke-width="20" stroke-linejoin="miter"></path><path d="M331.9653,97.6312c77.5565,38.7516 77.5565,81.4482 0,114.8849" fill="#ffffff" stroke="#cc2fa9" stroke-width="20" stroke-linejoin="miter"></path><path d="M106.8906,193.1296c-6.8886,-8.7764 -6.8886,-62.6227 0,-71.399c4.0242,-5.127 15.101,-5.127 19.1252,0c6.8886,8.7764 6.8886,62.6227 0,71.399c-4.0242,5.127 -15.101,5.127 -19.1252,0z" fill="#cc2fa9" stroke="none" stroke-width="1" stroke-linejoin="round"></path></g></svg>